<?xml version="1.0" encoding="UTF-8"?>
<svg version="1.1" xmlns="http://www.w3.org/2000/svg" width="500" height="500">
<path d="M0 0 C165 0 330 0 500 0 C500 165 500 330 500 500 C335 500 170 500 0 500 C0 335 0 170 0 0 Z " fill="#FEFAA3" transform="translate(0,0)"/>
<path d="M0 0 C0.70737305 0.18723633 1.41474609 0.37447266 2.14355469 0.56738281 C6.13652819 1.65946201 10.05468493 2.90738564 13.95898438 4.28173828 C15.38674089 4.78418561 16.81807322 5.27653429 18.25195312 5.76123047 C44.81911305 14.74718162 66.09225335 29.33019454 86 49 C86.58273682 49.56009766 87.16547363 50.12019531 87.76586914 50.69726562 C91.91271661 54.73123898 95.50584536 58.97152043 98.9375 63.625 C99.45473633 64.32302734 99.97197266 65.02105469 100.50488281 65.74023438 C122.85280349 96.25133454 135.44380317 131.87474894 135.4375 169.75 C135.43889984 170.558927 135.44029968 171.367854 135.44174194 172.20129395 C135.42133397 186.61890908 133.73615565 200.04178613 130 214 C129.62329033 215.52073242 129.24696223 217.04155945 128.87109375 218.5625 C121.25632718 247.88759531 105.08825594 272.91345247 84.33837891 294.59863281 C83.1878491 295.80331013 82.05147984 297.02148325 80.91796875 298.2421875 C63.2465837 316.76923962 39.64435018 328.48804017 15.96606445 337.25732422 C14.4981693 337.81181783 13.04395017 338.40276721 11.59790039 339.01196289 C-1.4550918 343.97629513 -17.09802822 345.78278169 -31 346 C-32.27875 346.03867187 -33.5575 346.07734375 -34.875 346.1171875 C-83.33939098 347.18642586 -126.80977971 330.17205477 -162.0859375 297.1328125 C-169.51124483 290.01842582 -175.86338886 282.2349033 -182 274 C-182.62390625 273.18273437 -183.2478125 272.36546875 -183.890625 271.5234375 C-196.97820635 253.72677314 -205.19958847 233.15125278 -210.9375 211.9375 C-211.12481689 211.24986572 -211.31213379 210.56223145 -211.50512695 209.85375977 C-214.61141027 197.50268934 -215.35199616 185.03756887 -215.31567383 172.36645508 C-215.31250674 170.06739065 -215.33611919 167.76961078 -215.36132812 165.47070312 C-215.40431138 155.31065559 -214.19515056 145.90727324 -212 136 C-211.69145738 134.45076945 -211.38389112 132.90134343 -211.078125 131.3515625 C-204.02606138 99.61727621 -187.29482158 71.40629363 -165 48 C-163.95972656 46.86304687 -163.95972656 46.86304687 -162.8984375 45.703125 C-152.96235663 35.19159543 -140.48884096 26.22859545 -128 19 C-127.44570312 18.66581055 -126.89140625 18.33162109 -126.3203125 17.98730469 C-89.83293256 -3.83856904 -41.22228378 -11.02979483 0 0 Z " fill="#1D7D23" transform="translate(290,79)"/>
<path d="M0 0 C1.25619141 -0.01224609 2.51238281 -0.02449219 3.80664062 -0.03710938 C35.01788754 -0.08544894 62.66714014 13.3303412 85.328125 34.38671875 C108.00408981 57.61338556 119.4034125 88.27206668 119.37207031 120.44482422 C119.23043268 129.27983302 117.95613087 137.58008697 116.0625 146.1875 C115.93101562 147.01765625 115.79953125 147.8478125 115.6640625 148.703125 C114.03412631 158.48274213 108.68887259 168.11972784 103.0625 176.1875 C102.794375 175.630625 102.52625 175.07375 102.25 174.5 C99.94176073 169.70694669 99.94176073 169.70694669 96.375 165.875 C91.29110534 164.36357186 86.87380466 164.45847129 82.1875 166.875 C78.85476727 169.34122222 77.87876446 170.19687374 77.0625 174.1875 C76.62093175 179.75125997 76.76434699 183.46014735 80.0625 188.1875 C83.6249487 190.43339157 86.90823781 191.57657909 91.0625 192.1875 C89.68041193 196.09523124 87.86140116 199.06793991 85.375 202.375 C82.67483287 206.00777459 80.01549593 209.6544179 77.4375 213.375 C75.22790845 216.53517098 73.01510873 219.69180541 70.75 222.8125 C70.27949219 223.46476563 69.80898438 224.11703125 69.32421875 224.7890625 C68.90785156 225.25054687 68.49148438 225.71203125 68.0625 226.1875 C67.4025 226.1875 66.7425 226.1875 66.0625 226.1875 C66.02511719 225.27226562 65.98773438 224.35703125 65.94921875 223.4140625 C65.85060547 221.63128906 65.85060547 221.63128906 65.75 219.8125 C65.69199219 218.62914062 65.63398438 217.44578125 65.57421875 216.2265625 C65.40535156 215.22367188 65.23648438 214.22078125 65.0625 213.1875 C61.12924136 210.22076123 61.12924136 210.22076123 51.0625 210.1875 C51.0625 221.7375 51.0625 233.2875 51.0625 245.1875 C52.0525 245.1875 53.0425 245.1875 54.0625 245.1875 C52.68429652 248.0849797 51.11792764 250.70216368 49.3046875 253.34765625 C48.76569824 254.13551514 48.22670898 254.92337402 47.67138672 255.73510742 C47.0992041 256.56502197 46.52702148 257.39493652 45.9375 258.25 C45.34855957 259.10762939 44.75961914 259.96525879 44.15283203 260.84887695 C40.54427819 266.0872761 36.86300897 271.26151848 33.08984375 276.3828125 C31.00064194 279.27307627 28.96722347 282.19537376 26.95263672 285.13793945 C25.98889908 286.53916538 25.01531297 287.93367144 24.03173828 289.32104492 C21.92023247 292.32132047 20.11515203 295.06956512 18.61328125 298.43359375 C17.0556803 301.73121739 16.14163247 303.18311627 13.0625 305.1875 C5.62950514 307.2811707 -2.56285396 307.62968351 -9.9375 305.1875 C-14.99218485 301.65558442 -17.99359875 296.49402296 -20.87451172 291.15209961 C-23.87911208 285.59904055 -27.79030856 280.52109452 -31.4375 275.375 C-32.50133233 273.87111515 -33.56513348 272.36720823 -34.62890625 270.86328125 C-35.17305176 270.0945166 -35.71719727 269.32575195 -36.27783203 268.53369141 C-37.92531548 266.20472466 -39.57053219 263.87417581 -41.21484375 261.54296875 C-41.74464844 260.79184814 -42.27445312 260.04072754 -42.8203125 259.2668457 C-43.82689101 257.83964763 -44.83340559 256.41240447 -45.83984375 254.98510742 C-46.30390625 254.32744385 -46.76796875 253.66978027 -47.24609375 252.9921875 C-47.69106201 252.34419189 -48.13603027 251.69619629 -48.59448242 251.02856445 C-49.88472475 249.1798707 -49.88472475 249.1798707 -51.3840332 247.64916992 C-56.50934181 241.89349998 -55.48989768 235.06134318 -55.25 227.75 C-55.22744141 226.44611328 -55.20488281 225.14222656 -55.18164062 223.79882812 C-55.12294163 220.59386324 -55.04086838 217.39128369 -54.9375 214.1875 C-52.9575 214.1875 -50.9775 214.1875 -48.9375 214.1875 C-48.9375 212.8675 -48.9375 211.5475 -48.9375 210.1875 C-54.5475 210.1875 -60.1575 210.1875 -65.9375 210.1875 C-65.9375 211.5075 -65.9375 212.8275 -65.9375 214.1875 C-63.9575 214.1875 -61.9775 214.1875 -59.9375 214.1875 C-59.9375 220.4575 -59.9375 226.7275 -59.9375 233.1875 C-62.76570294 230.35929706 -64.76121937 228.20207957 -66.9375 225 C-69.67199846 221.02414463 -72.42337724 217.06249861 -75.20825195 213.12182617 C-76.24029085 211.6596485 -77.26875103 210.19493863 -78.29370117 208.7277832 C-80.77617197 205.18491536 -83.2924866 201.6963584 -85.96875 198.296875 C-93.66558829 188.40300864 -93.66558829 188.40300864 -93.1875 183.1875 C-92.64453125 181.09765625 -92.64453125 181.09765625 -91.9375 179.1875 C-91.4115625 177.4240625 -91.4115625 177.4240625 -90.875 175.625 C-90.4109375 174.4184375 -90.4109375 174.4184375 -89.9375 173.1875 C-89.2775 173.1875 -88.6175 173.1875 -87.9375 173.1875 C-87.37482422 174.90259766 -87.37482422 174.90259766 -86.80078125 176.65234375 C-86.28493651 178.143604 -85.76794982 179.63446959 -85.25 181.125 C-85.00572266 181.87974609 -84.76144531 182.63449219 -84.50976562 183.41210938 C-83.77967244 185.47300532 -83.08498295 187.32521045 -81.9375 189.1875 C-79.35335001 190.32510791 -79.35335001 190.32510791 -76.9375 190.1875 C-73.81067433 183.13138897 -71.0929257 175.99664125 -68.625 168.6875 C-68.35864746 167.91035645 -68.09229492 167.13321289 -67.81787109 166.33251953 C-67.57246582 165.59372559 -67.32706055 164.85493164 -67.07421875 164.09375 C-66.85467529 163.43697266 -66.63513184 162.78019531 -66.40893555 162.10351562 C-65.77821739 159.86900143 -65.77821739 159.86900143 -65.9375 156.1875 C-67.9175 155.8575 -69.8975 155.5275 -71.9375 155.1875 C-72.19144531 155.82816406 -72.44539063 156.46882812 -72.70703125 157.12890625 C-74.71682166 162.17972783 -76.77002429 167.20230588 -78.9375 172.1875 C-81.58271932 169.54228068 -82.38292519 166.52578651 -83.5625 163.0625 C-83.79195312 162.40378906 -84.02140625 161.74507812 -84.2578125 161.06640625 C-84.82286242 159.44188774 -85.38086277 157.81492029 -85.9375 156.1875 C-87.9175 156.1875 -89.8975 156.1875 -91.9375 156.1875 C-93.9175 161.7975 -95.8975 167.4075 -97.9375 173.1875 C-101.03065948 170.09434052 -101.64900574 165.76012179 -102.73046875 161.59765625 C-103.35869101 159.30717498 -103.35869101 159.30717498 -104.9375 156.1875 C-106.91561393 155.45845286 -108.91676719 154.78840212 -110.9375 154.1875 C-117.77813997 142.00501197 -117.39083651 123.7422616 -116.9375 110.1875 C-116.91945312 109.20652344 -116.90140625 108.22554688 -116.8828125 107.21484375 C-116.44520429 97.85775065 -113.69461233 89.07961539 -110.9375 80.1875 C-110.628125 79.17429687 -110.31875 78.16109375 -110 77.1171875 C-105.48005354 63.5977048 -97.97146771 52.06306305 -88.9375 41.1875 C-88.26847656 40.36507812 -87.59945312 39.54265625 -86.91015625 38.6953125 C-71.65075612 20.65863914 -47.35828433 5.70805414 -23.8125 2.125 C-19.94736102 1.56367537 -19.94736102 1.56367537 -16.15454102 0.66894531 C-10.91658225 -0.46851253 -5.33551446 0.00266376 0 0 Z " fill="#16581A" transform="translate(248.9375,98.8125)"/>
<path d="M0 0 C0.70737305 0.18723633 1.41474609 0.37447266 2.14355469 0.56738281 C6.13652819 1.65946201 10.05468493 2.90738564 13.95898438 4.28173828 C15.38674089 4.78418561 16.81807322 5.27653429 18.25195312 5.76123047 C44.81911305 14.74718162 66.09225335 29.33019454 86 49 C86.58273682 49.56009766 87.16547363 50.12019531 87.76586914 50.69726562 C91.91271661 54.73123898 95.50584536 58.97152043 98.9375 63.625 C99.45473633 64.32302734 99.97197266 65.02105469 100.50488281 65.74023438 C122.85280349 96.25133454 135.44380317 131.87474894 135.4375 169.75 C135.43889984 170.558927 135.44029968 171.367854 135.44174194 172.20129395 C135.42133397 186.61890908 133.73615565 200.04178613 130 214 C129.62329033 215.52073242 129.24696223 217.04155945 128.87109375 218.5625 C121.25632718 247.88759531 105.08825594 272.91345247 84.33837891 294.59863281 C83.1878491 295.80331013 82.05147984 297.02148325 80.91796875 298.2421875 C63.2465837 316.76923962 39.64435018 328.48804017 15.96606445 337.25732422 C14.4981693 337.81181783 13.04395017 338.40276721 11.59790039 339.01196289 C-1.4550918 343.97629513 -17.09802822 345.78278169 -31 346 C-32.27875 346.03867187 -33.5575 346.07734375 -34.875 346.1171875 C-83.33939098 347.18642586 -126.80977971 330.17205477 -162.0859375 297.1328125 C-169.51124483 290.01842582 -175.86338886 282.2349033 -182 274 C-182.62390625 273.18273437 -183.2478125 272.36546875 -183.890625 271.5234375 C-196.97820635 253.72677314 -205.19958847 233.15125278 -210.9375 211.9375 C-211.12481689 211.24986572 -211.31213379 210.56223145 -211.50512695 209.85375977 C-214.61141027 197.50268934 -215.35199616 185.03756887 -215.31567383 172.36645508 C-215.31250674 170.06739065 -215.33611919 167.76961078 -215.36132812 165.47070312 C-215.40431138 155.31065559 -214.19515056 145.90727324 -212 136 C-211.69145738 134.45076945 -211.38389112 132.90134343 -211.078125 131.3515625 C-204.02606138 99.61727621 -187.29482158 71.40629363 -165 48 C-163.95972656 46.86304687 -163.95972656 46.86304687 -162.8984375 45.703125 C-152.96235663 35.19159543 -140.48884096 26.22859545 -128 19 C-127.44570312 18.66581055 -126.89140625 18.33162109 -126.3203125 17.98730469 C-89.83293256 -3.83856904 -41.22228378 -11.02979483 0 0 Z M-116 33 C-116.64694824 33.35852051 -117.29389648 33.71704102 -117.96044922 34.08642578 C-126.66972352 38.9637056 -134.52346751 44.34267149 -142 51 C-142.55574707 51.49016602 -143.11149414 51.98033203 -143.68408203 52.48535156 C-173.4190517 78.83525916 -193.310542 115.18923355 -197 155 C-197.27947496 160.29329509 -197.34215382 165.57560794 -197.3125 170.875 C-197.31034485 171.57476959 -197.3081897 172.27453918 -197.30596924 172.99551392 C-197.25365943 183.60911308 -196.7386565 193.69400319 -194 204 C-193.67805664 205.25345215 -193.67805664 205.25345215 -193.34960938 206.53222656 C-190.63007784 216.98706472 -187.628105 227.21135314 -183 237 C-182.51144531 238.07894531 -182.02289063 239.15789062 -181.51953125 240.26953125 C-168.81094851 267.16584294 -147.99800694 289.19505461 -123 305 C-122.1347168 305.55445801 -122.1347168 305.55445801 -121.25195312 306.12011719 C-108.29634808 314.32130241 -93.90014611 319.91793817 -79.125 323.875 C-78.41384033 324.06602295 -77.70268066 324.2570459 -76.9699707 324.45385742 C-65.34959793 327.36389967 -53.66547523 328.35321805 -41.72363281 328.31567383 C-39.6329325 328.312512 -37.54365242 328.33610269 -35.453125 328.36132812 C-5.700808 328.50271018 24.66646963 317.78590929 49 301 C50.04542969 300.28070313 51.09085938 299.56140625 52.16796875 298.8203125 C84.15710355 275.74756798 104.25352801 242.85418861 114 205 C114.18079102 204.2992334 114.36158203 203.5984668 114.54785156 202.87646484 C117.11818629 192.30130039 117.27906304 181.6392004 117.3125 170.8125 C117.31626648 170.14126099 117.32003296 169.47002197 117.32391357 168.77844238 C117.36351176 154.85265332 115.90466601 141.53583949 111.875 128.1875 C111.56860596 127.16269531 111.26221191 126.13789063 110.9465332 125.08203125 C99.4917149 87.93565053 75.16398292 58.3344956 43 37 C42.21496094 36.46632813 41.42992187 35.93265625 40.62109375 35.3828125 C-5.49830587 5.70598144 -68.92429392 6.67692537 -116 33 Z " fill="#1F7E25" transform="translate(290,79)"/>
<path d="M0 0 C2.20076159 0.81938687 4.31797376 1.21600542 6.62890625 1.62109375 C12.12003699 2.80785614 15.26164575 5.33619537 18.4921875 9.8046875 C29.00390625 26.34638445 29.00390625 26.34638445 29.00390625 33.74609375 C31.64390625 34.07609375 34.28390625 34.40609375 37.00390625 34.74609375 C37.00390625 35.40609375 37.00390625 36.06609375 37.00390625 36.74609375 C33.53890625 37.24109375 33.53890625 37.24109375 30.00390625 37.74609375 C30.19726562 38.49890625 30.390625 39.25171875 30.58984375 40.02734375 C34.44150165 55.73905716 35.30064693 70.65615445 35.00390625 86.74609375 C34.01390625 86.74609375 33.02390625 86.74609375 32.00390625 86.74609375 C31.86855469 85.58078125 31.73320312 84.41546875 31.59375 83.21484375 C30.3271565 73.25097492 28.40220909 63.65512204 25.62890625 53.99609375 C25.34909912 52.99771484 25.06929199 51.99933594 24.78100586 50.97070312 C21.68834539 40.45455546 21.68834539 40.45455546 14.109375 33.08984375 C13.14644531 32.81140625 12.18351563 32.53296875 11.19140625 32.24609375 C10.21558594 31.94703125 9.23976563 31.64796875 8.234375 31.33984375 C7.49832031 31.14390625 6.76226562 30.94796875 6.00390625 30.74609375 C6.00390625 32.06609375 6.00390625 33.38609375 6.00390625 34.74609375 C3.36575255 36.0651706 1.38112838 35.80741781 -1.55859375 35.74609375 C-3.37070156 35.7083906 -5.18419119 35.69956014 -6.99609375 35.74609375 C-8.41999335 36.95467927 -8.41999335 36.95467927 -8.30859375 40.49609375 C-8.16433444 50.62630312 -3.63052487 59.90217275 0.69140625 68.859375 C1.75997909 71.20959919 2.53298026 73.31315366 3.12890625 75.80859375 C3.789878 78.87901656 3.789878 78.87901656 6.19140625 80.93359375 C6.78953125 81.53171875 7.38765625 82.12984375 8.00390625 82.74609375 C7.87890625 84.93359375 7.87890625 84.93359375 7.00390625 86.74609375 C4.35932246 88.06838564 2.32629324 87.84286569 -0.62109375 87.80859375 C-2.12542969 87.79505859 -2.12542969 87.79505859 -3.66015625 87.78125 C-4.43101562 87.76964844 -5.201875 87.75804687 -5.99609375 87.74609375 C-6.14304687 86.67681641 -6.14304687 86.67681641 -6.29296875 85.5859375 C-7.25181114 79.44438667 -8.43218706 74.86920961 -11.99609375 69.74609375 C-12.65609375 69.41609375 -13.31609375 69.08609375 -13.99609375 68.74609375 C-13.91488281 69.85984375 -13.83367187 70.97359375 -13.75 72.12109375 C-13.33247531 80.42031261 -13.59108244 87.5681822 -16.99609375 95.24609375 C-17.26236572 95.85453125 -17.5286377 96.46296875 -17.80297852 97.08984375 C-19.25637914 100.08126216 -20.73928549 102.46896209 -23.01367188 104.92333984 C-28.6732845 111.03617345 -29.87316208 115.27233114 -29.69921875 123.578125 C-29.6321875 124.82980469 -29.56515625 126.08148438 -29.49609375 127.37109375 C-29.46 128.66144531 -29.42390625 129.95179688 -29.38671875 131.28125 C-29.29314507 134.43936178 -29.1621794 137.59110526 -28.99609375 140.74609375 C-27.67609375 141.40609375 -26.35609375 142.06609375 -24.99609375 142.74609375 C-24.95355019 144.74564121 -24.95528592 146.74651011 -24.99609375 148.74609375 C-26.56527867 150.31527867 -28.13694534 150.02868318 -30.30859375 150.12109375 C-31.08847656 150.17007813 -31.86835938 150.2190625 -32.671875 150.26953125 C-36.13939453 149.48861089 -37.07035556 147.65609256 -38.99609375 144.74609375 C-39.45019531 141.88354492 -39.45019531 141.88354492 -39.38671875 138.7890625 C-39.37382812 137.67724609 -39.3609375 136.56542969 -39.34765625 135.41992188 C-39.31414062 134.26943359 -39.280625 133.11894531 -39.24609375 131.93359375 C-39.22804688 130.76376953 -39.21 129.59394531 -39.19140625 128.38867188 C-39.14435815 125.50697595 -39.07863084 122.62695578 -38.99609375 119.74609375 C-39.94484375 120.24109375 -40.89359375 120.73609375 -41.87109375 121.24609375 C-44.99609375 122.74609375 -44.99609375 122.74609375 -46.99609375 122.74609375 C-45.75859375 124.26203125 -45.75859375 124.26203125 -44.49609375 125.80859375 C-41.84198011 129.52586086 -41.28686545 132.13610978 -41.99609375 136.74609375 C-43.109375 138.4375 -43.109375 138.4375 -44.99609375 139.74609375 C-48.1328125 140.0390625 -48.1328125 140.0390625 -51.68359375 139.93359375 C-53.45283203 139.89298828 -53.45283203 139.89298828 -55.2578125 139.8515625 C-56.16144531 139.81675781 -57.06507813 139.78195312 -57.99609375 139.74609375 C-57.99609375 140.40609375 -57.99609375 141.06609375 -57.99609375 141.74609375 C-57.08085937 141.72289062 -56.165625 141.6996875 -55.22265625 141.67578125 C-54.03414063 141.65773438 -52.845625 141.6396875 -51.62109375 141.62109375 C-50.43773437 141.59789062 -49.254375 141.5746875 -48.03515625 141.55078125 C-44.99609375 141.74609375 -44.99609375 141.74609375 -42.99609375 143.74609375 C-43.12109375 146.24609375 -43.12109375 146.24609375 -43.99609375 148.74609375 C-48.37049534 151.57143108 -52.97235297 151.35667148 -57.99609375 150.74609375 C-62.28818849 149.41378925 -64.60581216 147.40075965 -66.93359375 143.49609375 C-68.16918944 139.13516779 -68.43948673 136.25392233 -67.99609375 131.74609375 C-66.49609375 129.37109375 -66.49609375 129.37109375 -64.99609375 127.74609375 C-64.99609375 127.08609375 -64.99609375 126.42609375 -64.99609375 125.74609375 C-66.97609375 125.41609375 -68.95609375 125.08609375 -70.99609375 124.74609375 C-70.98562012 125.4323584 -70.97514648 126.11862305 -70.96435547 126.82568359 C-70.92287501 129.92411664 -70.89679306 133.02249136 -70.87109375 136.12109375 C-70.85433594 137.20132813 -70.83757812 138.2815625 -70.8203125 139.39453125 C-70.81386719 140.42578125 -70.80742187 141.45703125 -70.80078125 142.51953125 C-70.79030762 143.47263184 -70.77983398 144.42573242 -70.76904297 145.40771484 C-70.99609375 147.74609375 -70.99609375 147.74609375 -72.99609375 149.74609375 C-78.32942708 150.07942708 -78.32942708 150.07942708 -80.99609375 148.74609375 C-81.65609375 149.07609375 -82.31609375 149.40609375 -82.99609375 149.74609375 C-86.17065561 150.26288289 -88.1855313 150.2837117 -90.91015625 148.4765625 C-96.8380333 143.46348129 -96.8380333 143.46348129 -97.19921875 139.5390625 C-97.31382152 133.16905872 -96.74670257 129.70045137 -92.30859375 124.93359375 C-88.81973518 123.14201773 -85.88848228 123.55147432 -81.99609375 123.74609375 C-84.28978362 121.20823689 -86.6128866 119.78319596 -89.62109375 118.18359375 C-99.66524651 112.22445355 -105.61721056 103.41180209 -109.99609375 92.74609375 C-110.24746094 91.60333984 -110.24746094 91.60333984 -110.50390625 90.4375 C-110.66632813 89.87933594 -110.82875 89.32117188 -110.99609375 88.74609375 C-111.77984375 88.51921875 -112.56359375 88.29234375 -113.37109375 88.05859375 C-115.99609375 86.74609375 -115.99609375 86.74609375 -116.88671875 84.73046875 C-117.36799651 83.14327612 -117.81479119 81.54512396 -118.22265625 79.9375 C-119.07460706 77.52363938 -120.07431334 76.39712609 -121.99609375 74.74609375 C-123.80228898 79.20845844 -124.11267876 82.05643669 -122.99609375 86.74609375 C-125.63609375 86.74609375 -128.27609375 86.74609375 -130.99609375 86.74609375 C-130.86332031 86.09125 -130.73054688 85.43640625 -130.59375 84.76171875 C-129.2408391 77.77003324 -128.46716893 70.84941163 -127.99609375 63.74609375 C-128.63675781 63.96265625 -129.27742188 64.17921875 -129.9375 64.40234375 C-135.16990195 66.08669371 -139.50265325 67.10436161 -144.99609375 66.74609375 C-144.99609375 67.40609375 -144.99609375 68.06609375 -144.99609375 68.74609375 C-145.98609375 69.24109375 -145.98609375 69.24109375 -146.99609375 69.74609375 C-147.33076284 75.43546828 -147.27790768 78.89471664 -143.99609375 83.74609375 C-144.32609375 84.73609375 -144.65609375 85.72609375 -144.99609375 86.74609375 C-147.30609375 86.41609375 -149.61609375 86.08609375 -151.99609375 85.74609375 C-152.65609375 82.44609375 -153.31609375 79.14609375 -153.99609375 75.74609375 C-154.98609375 78.71609375 -155.97609375 81.68609375 -156.99609375 84.74609375 C-158.64609375 84.74609375 -160.29609375 84.74609375 -161.99609375 84.74609375 C-161.52255853 81.052519 -160.68562885 77.73643688 -159.43359375 74.24609375 C-158.16994903 70.62078292 -157.69809521 67.62007473 -157.99609375 63.74609375 C-158.32609375 63.74609375 -158.65609375 63.74609375 -158.99609375 63.74609375 C-159.63600393 55.46992204 -159.21076136 48.5315995 -153.99609375 41.74609375 C-149.38193474 37.68634919 -144.22054644 38.47366323 -138.43359375 38.68359375 C-136.55756718 38.74369821 -134.68122636 38.79482605 -132.8046875 38.8359375 C-131.97767334 38.86550537 -131.15065918 38.89507324 -130.29858398 38.92553711 C-127.73494343 38.72574114 -126.2420407 37.94792569 -123.99609375 36.74609375 C-117.3312774 36.07961211 -110.35676829 37.58362235 -104.6953125 41.2265625 C-104.13457031 41.72800781 -103.57382813 42.22945312 -102.99609375 42.74609375 C-102.99609375 43.40609375 -102.99609375 44.06609375 -102.99609375 44.74609375 C-102.031875 43.96363281 -101.06765625 43.18117187 -100.07421875 42.375 C-98.79845737 41.35251477 -97.52240015 40.33039858 -96.24609375 39.30859375 C-95.611875 38.79232422 -94.97765625 38.27605469 -94.32421875 37.74414062 C-93.70546875 37.25107422 -93.08671875 36.75800781 -92.44921875 36.25 C-91.88364258 35.79439697 -91.31806641 35.33879395 -90.73535156 34.86938477 C-88.83533246 33.64226687 -87.20492285 33.17135682 -84.99609375 32.74609375 C-85.07859375 31.81796875 -85.16109375 30.88984375 -85.24609375 29.93359375 C-85.24609375 21.7322066 -81.11136964 12.92309878 -75.43359375 7.16015625 C-68.75770811 1.05052877 -62.82414313 -0.59668105 -53.86328125 -0.45703125 C-50.99609375 -0.25390625 -50.99609375 -0.25390625 -48.59375 0.2421875 C-38.28373033 2.24217628 -29.02097993 0.73446637 -19.18359375 -2.41796875 C-12.33259264 -4.21467737 -6.37754925 -2.69274301 0 0 Z " fill="#1F7D25" transform="translate(312.99609375,140.25390625)"/>
<path d="M0 0 C2.20076159 0.81938687 4.31797376 1.21600542 6.62890625 1.62109375 C12.12003699 2.80785614 15.26164575 5.33619537 18.4921875 9.8046875 C29.00390625 26.34638445 29.00390625 26.34638445 29.00390625 33.74609375 C31.64390625 34.07609375 34.28390625 34.40609375 37.00390625 34.74609375 C37.00390625 35.40609375 37.00390625 36.06609375 37.00390625 36.74609375 C33.53890625 37.24109375 33.53890625 37.24109375 30.00390625 37.74609375 C30.19726562 38.49890625 30.390625 39.25171875 30.58984375 40.02734375 C34.44150165 55.73905716 35.30064693 70.65615445 35.00390625 86.74609375 C34.01390625 86.74609375 33.02390625 86.74609375 32.00390625 86.74609375 C31.86855469 85.58078125 31.73320312 84.41546875 31.59375 83.21484375 C30.3271565 73.25097492 28.40220909 63.65512204 25.62890625 53.99609375 C25.34909912 52.99771484 25.06929199 51.99933594 24.78100586 50.97070312 C21.68834539 40.45455546 21.68834539 40.45455546 14.109375 33.08984375 C13.14644531 32.81140625 12.18351562 32.53296875 11.19140625 32.24609375 C10.21558594 31.94703125 9.23976563 31.64796875 8.234375 31.33984375 C7.49832031 31.14390625 6.76226562 30.94796875 6.00390625 30.74609375 C6.00390625 32.06609375 6.00390625 33.38609375 6.00390625 34.74609375 C3.36575255 36.0651706 1.38112838 35.80741781 -1.55859375 35.74609375 C-3.37070156 35.7083906 -5.18419119 35.69956014 -6.99609375 35.74609375 C-8.41999335 36.95467927 -8.41999335 36.95467927 -8.30859375 40.49609375 C-8.16433444 50.62630312 -3.63052487 59.90217275 0.69140625 68.859375 C1.75997909 71.20959919 2.53298026 73.31315366 3.12890625 75.80859375 C3.789878 78.87901656 3.789878 78.87901656 6.19140625 80.93359375 C6.78953125 81.53171875 7.38765625 82.12984375 8.00390625 82.74609375 C7.87890625 84.93359375 7.87890625 84.93359375 7.00390625 86.74609375 C4.35932246 88.06838564 2.32629324 87.84286569 -0.62109375 87.80859375 C-2.12542969 87.79505859 -2.12542969 87.79505859 -3.66015625 87.78125 C-4.43101562 87.76964844 -5.201875 87.75804687 -5.99609375 87.74609375 C-6.05925781 87.09125 -6.12242187 86.43640625 -6.1875 85.76171875 C-7.27365834 77.66698081 -10.27899419 71.39898417 -14.99609375 64.74609375 C-15.65609375 64.41609375 -16.31609375 64.08609375 -16.99609375 63.74609375 C-17.18945312 64.49375 -17.3828125 65.24140625 -17.58203125 66.01171875 C-17.84242188 66.9965625 -18.1028125 67.98140625 -18.37109375 68.99609375 C-18.75394531 70.45789063 -18.75394531 70.45789063 -19.14453125 71.94921875 C-19.89306487 74.40770531 -20.85145448 76.46188 -21.99609375 78.74609375 C-21.57651527 81.99782696 -20.23238745 84.65535949 -18.99609375 87.74609375 C-23.61609375 87.74609375 -28.23609375 87.74609375 -32.99609375 87.74609375 C-33.32609375 87.08609375 -33.65609375 86.42609375 -33.99609375 85.74609375 C-33.56296875 84.79734375 -33.12984375 83.84859375 -32.68359375 82.87109375 C-27.56462597 71.31819398 -28.77058555 58.09006573 -28.99609375 45.74609375 C-36.61158734 47.5236474 -36.61158734 47.5236474 -44.05859375 49.87109375 C-47.02727025 50.75538037 -49.53834175 50.94238349 -52.62109375 51.12109375 C-56.96643579 51.40396475 -56.96643579 51.40396475 -60.55859375 53.80859375 C-61.03296875 54.44796875 -61.50734375 55.08734375 -61.99609375 55.74609375 C-62.65609375 55.74609375 -63.31609375 55.74609375 -63.99609375 55.74609375 C-64.67059795 69.53476612 -64.67059795 69.53476612 -59.328125 81.8671875 C-58.88855469 82.48722656 -58.44898438 83.10726562 -57.99609375 83.74609375 C-58.49109375 85.23109375 -58.49109375 85.23109375 -58.99609375 86.74609375 C-60.97518773 86.77295928 -62.95438346 86.7924275 -64.93359375 86.80859375 C-66.03574219 86.82019531 -67.13789063 86.83179688 -68.2734375 86.84375 C-70.99609375 86.74609375 -70.99609375 86.74609375 -71.99609375 85.74609375 C-72.29118436 84.33658687 -72.53315338 82.9158327 -72.75 81.4921875 C-72.94819336 80.21118164 -72.94819336 80.21118164 -73.15039062 78.90429688 C-73.28509766 78.00646484 -73.41980469 77.10863281 -73.55859375 76.18359375 C-73.69716797 75.28189453 -73.83574219 74.38019531 -73.97851562 73.45117188 C-74.32137426 71.21667942 -74.66039398 68.98167105 -74.99609375 66.74609375 C-75.65609375 66.74609375 -76.31609375 66.74609375 -76.99609375 66.74609375 C-77.11984375 67.46796875 -77.24359375 68.18984375 -77.37109375 68.93359375 C-77.99609375 71.74609375 -77.99609375 71.74609375 -78.99609375 74.05859375 C-80.3220792 77.62217964 -80.61161228 80.96535927 -80.99609375 84.74609375 C-84.62609375 84.41609375 -88.25609375 84.08609375 -91.99609375 83.74609375 C-91.06202909 79.07577045 -89.53951876 75.32032472 -87.55859375 71.05859375 C-82.63086845 60.04367838 -81.6820207 50.85535459 -81.99609375 38.74609375 C-82.65609375 38.74609375 -83.31609375 38.74609375 -83.99609375 38.74609375 C-83.97546875 40.00421875 -83.95484375 41.26234375 -83.93359375 42.55859375 C-83.96150336 51.44780311 -84.72920624 59.4247765 -87.99609375 67.74609375 C-88.32609375 67.74609375 -88.65609375 67.74609375 -88.99609375 67.74609375 C-89.16624488 64.34307125 -88.97888134 61.6854976 -88.04296875 58.390625 C-86.1769352 51.211923 -86.28379255 43.64987236 -85.9609375 36.27539062 C-85.28510857 24.48663878 -82.66865996 13.78153381 -73.68359375 5.55859375 C-66.51518766 -0.20335291 -59.94869965 -0.88815081 -50.99609375 -0.25390625 C-50.20332031 -0.09019531 -49.41054688 0.07351562 -48.59375 0.2421875 C-38.28373033 2.24217628 -29.02097993 0.73446637 -19.18359375 -2.41796875 C-12.33259264 -4.21467737 -6.37754925 -2.69274301 0 0 Z " fill="#B0AE71" transform="translate(312.99609375,140.25390625)"/>
<path d="M0 0 C0.78774811 -0.0010675 1.57549622 -0.00213501 2.38711548 -0.00323486 C46.47152677 0.08255957 85.69343737 18.74846149 116.8125 49.4375 C140.45259275 73.33984417 154.27684864 104.63502541 159.8125 137.4375 C159.98450928 138.18112793 160.15651855 138.92475586 160.33374023 139.69091797 C161.42920538 145.97545792 161.10487971 152.50494821 161.125 158.875 C161.12761841 159.6600592 161.13023682 160.44511841 161.13293457 161.25396729 C161.13760987 174.33644544 160.10541902 186.72590664 156.8125 199.4375 C156.34457031 201.26474609 156.34457031 201.26474609 155.8671875 203.12890625 C154.96271687 206.28695286 153.93847184 209.35194208 152.8125 212.4375 C152.39355469 213.59894531 151.97460938 214.76039063 151.54296875 215.95703125 C135.9945472 256.86265821 105.15116281 289.59322715 65.1875 307.5625 C34.5947486 320.05715046 -1.6536112 326.37925593 -34.1875 317.4375 C-35.03715332 317.21707031 -35.88680664 316.99664062 -36.76220703 316.76953125 C-55.3071716 311.887068 -73.55123779 304.7411137 -89.1875 293.4375 C-90.20585937 292.70144531 -91.22421875 291.96539062 -92.2734375 291.20703125 C-122.88601072 268.56481227 -146.00093792 236.71689702 -155.1875 199.4375 C-155.36796875 198.73544434 -155.5484375 198.03338867 -155.734375 197.31005859 C-158.84154649 184.78952211 -159.5845902 172.46333005 -159.625 159.625 C-159.63412415 158.53490631 -159.63412415 158.53490631 -159.64343262 157.42279053 C-159.87778045 114.64223181 -140.4230167 75.7850463 -111.375 45.3125 C-106.23781371 40.32299463 -100.52537683 35.99279277 -94.82275391 31.67578125 C-93.45129568 30.63725689 -92.08966992 29.58576538 -90.73046875 28.53125 C-72.79815585 15.21548701 -51.01076875 6.60787139 -29.1875 2.4375 C-28.33857178 2.26162354 -27.48964355 2.08574707 -26.61499023 1.90454102 C-17.75872041 0.2170207 -8.98165342 -0.00259432 0 0 Z M-75.1875 22.4375 C-75.83444824 22.79602051 -76.48139648 23.15454102 -77.14794922 23.52392578 C-85.85722352 28.4012056 -93.71096751 33.78017149 -101.1875 40.4375 C-101.74324707 40.92766602 -102.29899414 41.41783203 -102.87158203 41.92285156 C-132.6065517 68.27275916 -152.498042 104.62673355 -156.1875 144.4375 C-156.46697496 149.73079509 -156.52965382 155.01310794 -156.5 160.3125 C-156.49784485 161.01226959 -156.4956897 161.71203918 -156.49346924 162.43301392 C-156.44115943 173.04661308 -155.9261565 183.13150319 -153.1875 193.4375 C-152.86555664 194.69095215 -152.86555664 194.69095215 -152.53710938 195.96972656 C-149.81757784 206.42456472 -146.815605 216.64885314 -142.1875 226.4375 C-141.69894531 227.51644531 -141.21039063 228.59539062 -140.70703125 229.70703125 C-127.99844851 256.60334294 -107.18550694 278.63255461 -82.1875 294.4375 C-81.3222168 294.99195801 -81.3222168 294.99195801 -80.43945312 295.55761719 C-67.48384808 303.75880241 -53.08764611 309.35543817 -38.3125 313.3125 C-37.60134033 313.50352295 -36.89018066 313.6945459 -36.1574707 313.89135742 C-24.53709793 316.80139967 -12.85297523 317.79071805 -0.91113281 317.75317383 C1.1795675 317.750012 3.26884758 317.77360269 5.359375 317.79882812 C35.111692 317.94021018 65.47896963 307.22340929 89.8125 290.4375 C90.85792969 289.71820313 91.90335938 288.99890625 92.98046875 288.2578125 C124.96960355 265.18506798 145.06602801 232.29168861 154.8125 194.4375 C154.99329102 193.7367334 155.17408203 193.0359668 155.36035156 192.31396484 C157.93068629 181.73880039 158.09156304 171.0767004 158.125 160.25 C158.12876648 159.57876099 158.13253296 158.90752197 158.13641357 158.21594238 C158.17601176 144.29015332 156.71716601 130.97333949 152.6875 117.625 C152.38110596 116.60019531 152.07471191 115.57539063 151.7590332 114.51953125 C140.3042149 77.37315053 115.97648292 47.7719956 83.8125 26.4375 C83.02746094 25.90382813 82.24242187 25.37015625 81.43359375 24.8203125 C35.31419413 -4.85651856 -28.11179392 -3.88557463 -75.1875 22.4375 Z " fill="#02F319" transform="translate(249.1875,89.5625)"/>
<path d="M0 0 C0.82886719 0.36222656 1.65773438 0.72445312 2.51171875 1.09765625 C13.15578463 5.90623119 22.11944134 14.22149077 27 24.9375 C29.38588159 32.17985061 25.69476525 39.18215823 22.70703125 45.73828125 C21.3748391 49.9998241 23.35712022 52.89280056 25 57 C20.38 57 15.76 57 11 57 C10.67 56.34 10.34 55.68 10 55 C10.433125 54.05125 10.86625 53.1025 11.3125 52.125 C16.43146778 40.57210023 15.2255082 27.34397198 15 15 C7.38450641 16.77755365 7.38450641 16.77755365 -0.0625 19.125 C-3.0311765 20.00928662 -5.542248 20.19628974 -8.625 20.375 C-12.97034204 20.657871 -12.97034204 20.657871 -16.5625 23.0625 C-17.036875 23.701875 -17.51125 24.34125 -18 25 C-18.66 25 -19.32 25 -20 25 C-20.6745042 38.78867237 -20.6745042 38.78867237 -15.33203125 51.12109375 C-14.89246094 51.74113281 -14.45289063 52.36117187 -14 53 C-14.33 53.99 -14.66 54.98 -15 56 C-16.97909398 56.02686553 -18.95828971 56.04633375 -20.9375 56.0625 C-22.03964844 56.07410156 -23.14179688 56.08570313 -24.27734375 56.09765625 C-27 56 -27 56 -28 55 C-28.29509061 53.59049312 -28.53705963 52.16973895 -28.75390625 50.74609375 C-28.95209961 49.46508789 -28.95209961 49.46508789 -29.15429688 48.15820312 C-29.28900391 47.26037109 -29.42371094 46.36253906 -29.5625 45.4375 C-29.70107422 44.53580078 -29.83964844 43.63410156 -29.98242188 42.70507812 C-30.32528051 40.47058567 -30.66430023 38.2355773 -31 36 C-31.66 36 -32.32 36 -33 36 C-33.12375 36.721875 -33.2475 37.44375 -33.375 38.1875 C-34 41 -34 41 -35 43.3125 C-36.32598545 46.87608589 -36.61551853 50.21926552 -37 54 C-40.63 53.67 -44.26 53.34 -48 53 C-47.06593534 48.3296767 -45.54342501 44.57423097 -43.5625 40.3125 C-38.6347747 29.29758463 -37.68592695 20.10926084 -38 8 C-38.66 8 -39.32 8 -40 8 C-39.979375 9.258125 -39.95875 10.51625 -39.9375 11.8125 C-39.96540961 20.70170936 -40.73311249 28.67868275 -44 37 C-44.33 37 -44.66 37 -45 37 C-45.17006662 33.59866768 -44.97860377 30.92297358 -44.0625 27.625 C-42.72691174 22.79633473 -42.60108201 17.87838773 -42.42993164 12.89892578 C-42.23206186 8.31484913 -41.81386533 4.23584735 -40 0 C-28.52376202 -6.63625935 -11.41201422 -5.92958149 0 0 Z " fill="#FAF7A1" transform="translate(269,171)"/>
<path d="M0 0 C6.11825314 2.00233739 9.14272455 5.19693879 12.125 10.8125 C13.51790283 13.77803505 14.46558326 16.53716607 14.875 19.8125 C16.855 20.3075 16.855 20.3075 18.875 20.8125 C17.885 20.8125 16.895 20.8125 15.875 20.8125 C16.0915625 21.95912109 16.0915625 21.95912109 16.3125 23.12890625 C17.81800166 31.81690542 18.09372155 40.02718438 17.875 48.8125 C17.215 48.8125 16.555 48.8125 15.875 48.8125 C15.77703125 47.95269531 15.6790625 47.09289062 15.578125 46.20703125 C14.03921485 33.65737501 14.03921485 33.65737501 9.875 21.8125 C7.2240604 19.86340406 4.99494176 18.85248059 1.875 17.8125 C1.875 18.4725 1.875 19.1325 1.875 19.8125 C-0.435 20.1425 -2.745 20.4725 -5.125 20.8125 C-4.62745136 30.59762316 -1.36440456 39.53975596 3.875 47.8125 C2.875 48.8125 2.875 48.8125 -0.6875 48.875 C-1.821875 48.854375 -2.95625 48.83375 -4.125 48.8125 C-4.30675781 48.19761719 -4.48851562 47.58273438 -4.67578125 46.94921875 C-4.92714844 46.14097656 -5.17851562 45.33273438 -5.4375 44.5 C-5.68113281 43.69949219 -5.92476562 42.89898437 -6.17578125 42.07421875 C-7.16682023 39.71285427 -8.20574943 38.47370007 -10.125 36.8125 C-11.93119523 41.27486469 -12.24158501 44.12284294 -11.125 48.8125 C-13.765 48.8125 -16.405 48.8125 -19.125 48.8125 C-18.92583984 47.83023438 -18.92583984 47.83023438 -18.72265625 46.828125 C-17.36974535 39.83643949 -16.59607518 32.91581788 -16.125 25.8125 C-16.76566406 26.0290625 -17.40632813 26.245625 -18.06640625 26.46875 C-23.2988082 28.15309996 -27.6315595 29.17076786 -33.125 28.8125 C-33.125 29.4725 -33.125 30.1325 -33.125 30.8125 C-34.115 31.3075 -34.115 31.3075 -35.125 31.8125 C-35.45966909 37.50187453 -35.40681393 40.96112289 -32.125 45.8125 C-32.455 46.8025 -32.785 47.7925 -33.125 48.8125 C-35.435 48.4825 -37.745 48.1525 -40.125 47.8125 C-40.785 44.5125 -41.445 41.2125 -42.125 37.8125 C-43.115 40.7825 -44.105 43.7525 -45.125 46.8125 C-46.775 46.8125 -48.425 46.8125 -50.125 46.8125 C-49.65146478 43.11892525 -48.8145351 39.80284313 -47.5625 36.3125 C-46.29885528 32.68718917 -45.82700146 29.68648098 -46.125 25.8125 C-46.455 25.8125 -46.785 25.8125 -47.125 25.8125 C-47.76491018 17.53632829 -47.33966761 10.59800575 -42.125 3.8125 C-37.51084099 -0.24724456 -32.34945269 0.54006948 -26.5625 0.75 C-24.68647343 0.81010446 -22.81013261 0.8612323 -20.93359375 0.90234375 C-19.69307251 0.94669556 -19.69307251 0.94669556 -18.42749023 0.99194336 C-1.30706907 -0.34232761 -1.30706907 -0.34232761 0 0 Z " fill="#AFAE70" transform="translate(201.125,178.1875)"/>
<path d="M0 0 C1.9921875 0.8515625 1.9921875 0.8515625 3.1875 2.92578125 C3.49429688 3.78816406 3.80109375 4.65054687 4.1171875 5.5390625 C4.44460937 6.43753906 4.77203125 7.33601563 5.109375 8.26171875 C5.54636719 9.54369141 5.54636719 9.54369141 5.9921875 10.8515625 C6.4046875 12.0478125 6.8171875 13.2440625 7.2421875 14.4765625 C7.4896875 15.2603125 7.7371875 16.0440625 7.9921875 16.8515625 C8.24613281 16.19929688 8.50007812 15.54703125 8.76171875 14.875 C10.64957278 10.08112348 12.59222488 5.41149148 14.9921875 0.8515625 C16.9721875 0.8515625 18.9521875 0.8515625 20.9921875 0.8515625 C21.59698435 2.20544783 22.20098504 3.55968882 22.8046875 4.9140625 C23.14113281 5.66816406 23.47757813 6.42226563 23.82421875 7.19921875 C25.23677321 10.40699293 26.61530553 13.62831731 27.9921875 16.8515625 C28.32992187 15.79195313 28.66765625 14.73234375 29.015625 13.640625 C29.46582742 12.25250086 29.91636575 10.86448563 30.3671875 9.4765625 C30.69976562 8.42855469 30.69976562 8.42855469 31.0390625 7.359375 C32.765625 2.078125 32.765625 2.078125 34.9921875 -0.1484375 C38.1171875 0.2265625 38.1171875 0.2265625 40.9921875 0.8515625 C42.3577787 5.38170501 41.51533667 8.20393995 39.97265625 12.61328125 C39.7540242 13.24514847 39.53539215 13.87701569 39.31013489 14.5280304 C38.84752629 15.85705028 38.3790369 17.18403609 37.9050293 18.5090332 C37.17988238 20.53851707 36.47431677 22.57402248 35.77148438 24.61132812 C32.29023845 34.55351155 32.29023845 34.55351155 29.9921875 36.8515625 C27.6171875 37.0390625 27.6171875 37.0390625 24.9921875 35.8515625 C21.71701467 30.70965294 20.27806425 24.74516428 18.9921875 18.8515625 C18.3321875 18.8515625 17.6721875 18.8515625 16.9921875 18.8515625 C16.82783203 19.686875 16.82783203 19.686875 16.66015625 20.5390625 C15.55003597 25.88208043 14.4404444 30.95504869 11.9921875 35.8515625 C8.8046875 36.8515625 8.8046875 36.8515625 5.9921875 36.8515625 C2.3711969 31.19396802 0.46972386 25.11152114 -1.6953125 18.7890625 C-2.11103516 17.60505859 -2.52675781 16.42105469 -2.95507812 15.20117188 C-3.34759766 14.06357422 -3.74011719 12.92597656 -4.14453125 11.75390625 C-4.50248779 10.71741943 -4.86044434 9.68093262 -5.22924805 8.61303711 C-6.0078125 5.8515625 -6.0078125 5.8515625 -6.0078125 1.8515625 C-3.86245201 0.5490222 -2.53753553 -0.1875999 0 0 Z " fill="#F7F59F" transform="translate(142.0078125,253.1484375)"/>
<path d="M0 0 C3.5 0.125 3.5 0.125 4.5 1.125 C4.61332093 3.69519485 4.66417485 6.23751477 4.66796875 8.80859375 C4.67129715 9.57929703 4.67462555 10.35000031 4.67805481 11.14405823 C4.6831271 12.77742921 4.68546304 14.4108106 4.68530273 16.04418945 C4.6874878 18.54851299 4.70563595 21.05239521 4.72460938 23.55664062 C4.72754347 25.14062349 4.72952816 26.72460845 4.73046875 28.30859375 C4.73765427 29.0607164 4.74483978 29.81283905 4.75224304 30.5877533 C4.72882279 35.89617721 4.72882279 35.89617721 2.5 38.125 C-2.83333333 38.45833333 -2.83333333 38.45833333 -5.5 37.125 C-6.49 37.62 -6.49 37.62 -7.5 38.125 C-10.67456186 38.64178914 -12.68943755 38.66261795 -15.4140625 36.85546875 C-21.34193955 31.84238754 -21.34193955 31.84238754 -21.703125 27.91796875 C-21.81772777 21.54796497 -21.25060882 18.07935762 -16.8125 13.3125 C-13.28515544 11.5011609 -10.43873939 11.86672201 -6.5 12.125 C-6.17 12.455 -5.84 12.785 -5.5 13.125 C-5.40912109 11.84302734 -5.40912109 11.84302734 -5.31640625 10.53515625 C-5.23261719 9.43042969 -5.14882812 8.32570313 -5.0625 7.1875 C-4.98128906 6.08535156 -4.90007812 4.98320312 -4.81640625 3.84765625 C-4.34476619 -0.21077739 -4.2363667 0.15129881 0 0 Z " fill="#F8F6A0" transform="translate(237.5,251.875)"/>
<path d="M0 0 C3.75212276 2.01502889 5.63644095 3.45466142 8 7 C8.54903488 13.14919063 8.54903488 13.14919063 6.8984375 15.70703125 C4.05876128 17.64104941 1.69947129 17.28810311 -1.6875 17.1875 C-2.86699219 17.16042969 -4.04648437 17.13335937 -5.26171875 17.10546875 C-6.16535156 17.07066406 -7.06898438 17.03585937 -8 17 C-8 17.66 -8 18.32 -8 19 C-7.08476562 18.97679687 -6.16953125 18.95359375 -5.2265625 18.9296875 C-4.03804688 18.91164063 -2.84953125 18.89359375 -1.625 18.875 C-0.44164062 18.85179687 0.74171875 18.82859375 1.9609375 18.8046875 C5 19 5 19 7 21 C6.875 23.5 6.875 23.5 6 26 C1.62559841 28.82533733 -2.97625922 28.61057773 -8 28 C-12.29209474 26.6676955 -14.60971841 24.6546659 -16.9375 20.75 C-18.10420632 16.63221297 -19.03307448 13.2149439 -18 9 C-13.77816642 2.03192515 -8.29201944 -1.32353387 0 0 Z " fill="#F4F39D" transform="translate(263,263)"/>
<path d="M0 0 C3.13780801 1.62701156 5.24513472 3.04821334 7.4375 5.8125 C8.28001377 9.08894242 7.72612612 11.73243244 7 15 C4.22957891 17.77042109 2.23466195 17.39796106 -1.625 17.625 C-2.81351562 17.69976562 -4.00203125 17.77453125 -5.2265625 17.8515625 C-6.59941406 17.92503906 -6.59941406 17.92503906 -8 18 C-5.3618463 19.31907685 -3.37722213 19.06132406 -0.4375 19 C1.37460781 18.96229685 3.18809744 18.95346639 5 19 C6 20 6 20 6.0625 23.0625 C6.041875 24.031875 6.02125 25.00125 6 26 C1.41949479 28.36413172 -2.95982753 28.69043458 -8 28 C-11.96406007 26.65831813 -14.50256761 24.70603307 -16.9375 21.25 C-18.6485339 16.01624925 -18.6485339 11.98375075 -16.9375 6.75 C-12.53335819 0.49896001 -7.23716199 -0.9190047 0 0 Z " fill="#F4F49E" transform="translate(343,263)"/>
<path d="M0 0 C-0.78110498 22.80127986 -0.78110498 22.80127986 -3 32 C-0.865805 26.60174205 -0.37327516 21.35108014 0.125 15.625 C0.21136719 14.69816406 0.29773438 13.77132812 0.38671875 12.81640625 C0.59748885 10.54477299 0.80173181 8.27275273 1 6 C1.66 6 2.32 6 3 6 C7.60880233 22.35381471 -1.49206663 38.47806401 -8 53 C-8.33 53 -8.66 53 -9 53 C-9.33921452 49.81309767 -9.67029417 46.62539896 -10 43.4375 C-10.09539062 42.54224609 -10.19078125 41.64699219 -10.2890625 40.72460938 C-10.69069825 36.80866078 -11.00061967 33.04417336 -10.9453125 29.1015625 C-10.99976177 26.01351076 -11.34972752 24.55941 -12.875 21.9375 C-14.70780448 18.72669807 -15.88888803 15.52853127 -17 12 C-15.44233138 10.55726615 -13.87864043 9.12103292 -12.3125 7.6875 C-11.44238281 6.88699219 -10.57226562 6.08648437 -9.67578125 5.26171875 C-3.4507772 0 -3.4507772 0 0 0 Z " fill="#217F26" transform="translate(228,173)"/>
<path d="M0 0 C1 1 1 1 1.1875 3.4375 C1 6 1 6 -1 8 C-1.680625 8.144375 -2.36125 8.28875 -3.0625 8.4375 C-3.701875 8.623125 -4.34125 8.80875 -5 9 C-5.33 9.99 -5.66 10.98 -6 12 C-4.2984375 11.9690625 -4.2984375 11.9690625 -2.5625 11.9375 C1 12 1 12 2 13 C2.125 16 2.125 16 2 19 C1 20 1 20 -2.5625 20.0625 C-3.696875 20.041875 -4.83125 20.02125 -6 20 C-5.98839844 21.21558594 -5.97679687 22.43117188 -5.96484375 23.68359375 C-5.95546722 25.26822764 -5.94636687 26.85286318 -5.9375 28.4375 C-5.92912109 29.23994141 -5.92074219 30.04238281 -5.91210938 30.86914062 C-5.9034857 32.91295221 -5.9477185 34.95683902 -6 37 C-7 38 -7 38 -10 38.125 C-13 38 -13 38 -14 37 C-14.07325168 34.13732433 -14.09238205 31.299281 -14.0625 28.4375 C-14.05798828 27.63119141 -14.05347656 26.82488281 -14.04882812 25.99414062 C-14.03700518 23.99606244 -14.01906914 21.99802217 -14 20 C-15.65 19.67 -17.3 19.34 -19 19 C-19 17.02 -19 15.04 -19 13 C-17.35 12.67 -15.7 12.34 -14 12 C-14.103125 10.948125 -14.20625 9.89625 -14.3125 8.8125 C-14 5 -14 5 -12.0625 2.0625 C-8.02289168 -0.65805254 -4.75242728 -0.68733452 0 0 Z " fill="#F9F7A0" transform="translate(321,252)"/>
<path d="M0 0 C11 0 11 0 14.1875 1.9375 C16.63172592 6.06739896 16.69071017 9.3099927 16 14 C15.34588315 15.67163195 14.68346682 17.34015202 14 19 C14.66 19.99 15.32 20.98 16 22 C16.1953125 25.13671875 16.1953125 25.13671875 16.125 28.6875 C16.10695312 29.86699219 16.08890625 31.04648437 16.0703125 32.26171875 C16.04710937 33.16535156 16.02390625 34.06898438 16 35 C14.68 35 13.36 35 12 35 C11.67 30.71 11.34 26.42 11 22 C8.69 21.34 6.38 20.68 4 20 C4 24.95 4 29.9 4 35 C2.68 35 1.36 35 0 35 C0 23.45 0 11.9 0 0 Z " fill="#F0F19B" transform="translate(202,309)"/>
<path d="M0 0 C11 0 11 0 15 3 C15.390625 6.13671875 15.390625 6.13671875 15.25 9.6875 C15.21390625 10.86699219 15.1778125 12.04648437 15.140625 13.26171875 C15.07101562 14.61716797 15.07101562 14.61716797 15 16 C14.01 16.33 13.02 16.66 12 17 C12 17.66 12 18.32 12 19 C12.99 19.33 13.98 19.66 15 20 C16.44207941 22.88415883 16.09394887 25.41721528 16.0625 28.625 C16.05347656 29.81351562 16.04445313 31.00203125 16.03515625 32.2265625 C16.02355469 33.14179688 16.01195312 34.05703125 16 35 C14.68 35 13.36 35 12 35 C11.95101563 34.15695312 11.90203125 33.31390625 11.8515625 32.4453125 C11.73941406 30.80175781 11.73941406 30.80175781 11.625 29.125 C11.55539062 28.03445313 11.48578125 26.94390625 11.4140625 25.8203125 C11.26746509 22.86953526 11.26746509 22.86953526 9 21 C7.35 20.67 5.7 20.34 4 20 C4 24.95 4 29.9 4 35 C2.68 35 1.36 35 0 35 C0 23.45 0 11.9 0 0 Z " fill="#F1F29C" transform="translate(300,309)"/>
<path d="M0 0 C2.31 0 4.62 0 7 0 C7.85930332 4.34070064 8.71365585 8.68233775 9.56347656 13.02490234 C9.85313943 14.50140535 10.14414261 15.97764608 10.43652344 17.45361328 C10.85706375 19.57777098 11.27274133 21.70283182 11.6875 23.828125 C11.93886719 25.1059082 12.19023437 26.38369141 12.44921875 27.70019531 C13 31 13 31 13 35 C11.68 35 10.36 35 9 35 C8.67 32.69 8.34 30.38 8 28 C5.03 28 2.06 28 -1 28 C-1.33 30.31 -1.66 32.62 -2 35 C-3.32 35 -4.64 35 -6 35 C-5.1946505 27.59448736 -3.81676677 20.31745452 -2.4375 13 C-2.20353516 11.74832031 -1.96957031 10.49664062 -1.72851562 9.20703125 C-1.15446483 6.13761679 -0.57823512 3.06862845 0 0 Z " fill="#EAEC97" transform="translate(227,309)"/>
<path d="M0 0 C3.5 0.125 3.5 0.125 4.5 1.125 C4.6584265 3.1958472 4.75124422 5.27178029 4.81640625 7.34765625 C4.85830078 8.60771484 4.90019531 9.86777344 4.94335938 11.16601562 C4.98317596 12.50650736 5.02288814 13.8470022 5.0625 15.1875 C5.10568042 16.53191523 5.14929456 17.8763166 5.19335938 19.22070312 C5.29985358 22.5220234 5.4018646 25.82342236 5.5 29.125 C6.82 29.785 8.14 30.445 9.5 31.125 C9.54254356 33.12454746 9.54080783 35.12541636 9.5 37.125 C7.93081508 38.69418492 6.35914841 38.40758943 4.1875 38.5 C3.40761719 38.54898438 2.62773437 38.59796875 1.82421875 38.6484375 C-1.68685388 37.85770854 -2.58591552 36.10914364 -4.5 33.125 C-4.9699707 29.63574219 -4.9699707 29.63574219 -4.92578125 25.671875 C-4.92249313 24.97104797 -4.91920502 24.27022095 -4.91581726 23.54815674 C-4.90543882 22.07562895 -4.88556088 20.60314068 -4.85668945 19.13085938 C-4.81236803 16.868263 -4.79521417 14.60672801 -4.78320312 12.34375 C-4.66915543 0.16675555 -4.66915543 0.16675555 0 0 Z " fill="#F6F59E" transform="translate(278.5,251.875)"/>
<path d="M0 0 C0.33 9.57 0.66 19.14 1 29 C2.32 29.33 3.64 29.66 5 30 C5.04241723 32.33294775 5.04092937 34.66702567 5 37 C3.12356239 38.87643761 0.50194299 38.17984987 -1.9921875 38.23046875 C-4 38 -4 38 -7 36 C-8.18975795 32.43072615 -8.12478155 29.20053028 -8.09765625 25.48828125 C-8.0962413 24.76005661 -8.09482635 24.03183197 -8.09336853 23.28153992 C-8.08777659 20.95848461 -8.07522562 18.63552612 -8.0625 16.3125 C-8.05748396 14.73632952 -8.05292123 13.16015752 -8.04882812 11.58398438 C-8.0378098 7.72261902 -8.02055074 3.86132592 -8 0 C-6 -1 -6 -1 0 0 Z " fill="#FBF8A1" transform="translate(208,252)"/>
<path d="M0 0 C1.32 0 2.64 0 4 0 C4.33 4.29 4.66 8.58 5 13 C5.44730469 12.14535156 5.89460938 11.29070312 6.35546875 10.41015625 C6.96003906 9.30542969 7.56460937 8.20070313 8.1875 7.0625 C8.77917969 5.96035156 9.37085938 4.85820312 9.98046875 3.72265625 C12 1 12 1 14.73828125 0.12109375 C15.48464844 0.08113281 16.23101562 0.04117187 17 0 C16.59007812 0.80824219 16.18015625 1.61648438 15.7578125 2.44921875 C15.21898437 3.51785156 14.68015625 4.58648437 14.125 5.6875 C13.59132813 6.74324219 13.05765625 7.79898437 12.5078125 8.88671875 C12.01023437 9.91410156 11.51265625 10.94148438 11 12 C10.525625 12.7734375 10.05125 13.546875 9.5625 14.34375 C8.63408295 18.72794163 10.87816526 21.95776885 12.875 25.8125 C13.26558594 26.60076172 13.65617187 27.38902344 14.05859375 28.20117188 C15.02317264 30.1420928 16.00951624 32.07217003 17 34 C15.02 34.495 15.02 34.495 13 35 C10.69 30.71 8.38 26.42 6 22 C5.67 22 5.34 22 5 22 C4.67 26.29 4.34 30.58 4 35 C2.68 35 1.36 35 0 35 C0 23.45 0 11.9 0 0 Z " fill="#EDEE99" transform="translate(262,309)"/>
<path d="M0 0 C3.5 0.5 3.5 0.5 5.9375 2 C8.21029038 5.63646461 7.78281164 8.25782535 7.5 12.5 C6.51 12.5 5.52 12.5 4.5 12.5 C3.84 10.19 3.18 7.88 2.5 5.5 C0.85 5.5 -0.8 5.5 -2.5 5.5 C-2.5 13.75 -2.5 22 -2.5 30.5 C-0.85 30.83 0.8 31.16 2.5 31.5 C3.16 28.53 3.82 25.56 4.5 22.5 C5.49 22.5 6.48 22.5 7.5 22.5 C7.94850498 30.27408638 7.94850498 30.27408638 6.5625 34.0625 C3.64386038 36.09670337 1.14699601 35.98470672 -2.34375 36.03125 C-4.5 35.5 -4.5 35.5 -6.10766602 33.8515625 C-8.89334333 29.14673278 -7.96803138 23.32356311 -7.9375 18 C-7.95748047 16.76378906 -7.97746094 15.52757812 -7.99804688 14.25390625 C-7.99740234 13.06667969 -7.99675781 11.87945312 -7.99609375 10.65625 C-7.99794678 9.57150391 -7.9997998 8.48675781 -8.00170898 7.36914062 C-7.13642198 2.42079371 -4.85373181 0.69339026 0 0 Z " fill="#ECEE99" transform="translate(250.5,308.5)"/>
<path d="M0 0 C4.95 0 9.9 0 15 0 C15 1.32 15 2.64 15 4 C11.37 4 7.74 4 4 4 C4 7.96 4 11.92 4 16 C6.64 16 9.28 16 12 16 C12 16.99 12 17.98 12 19 C9.36 19 6.72 19 4 19 C4 23.29 4 27.58 4 32 C7.3 32 10.6 32 14 32 C14 32.99 14 33.98 14 35 C9.38 35 4.76 35 0 35 C0 23.45 0 11.9 0 0 Z " fill="#F1F19C" transform="translate(282,309)"/>
<path d="M0 0 C3.5 0.125 3.5 0.125 4.5 1.125 C4.75208722 4.93088144 4.68522344 8.74925456 4.6875 12.5625 C4.69974609 13.63822266 4.71199219 14.71394531 4.72460938 15.82226562 C4.72750977 17.36237305 4.72750977 17.36237305 4.73046875 18.93359375 C4.73457764 19.88032959 4.73868652 20.82706543 4.74291992 21.80249023 C4.5 24.125 4.5 24.125 2.5 26.125 C-0.5625 26.3125 -0.5625 26.3125 -3.5 26.125 C-5.21567792 24.40932208 -4.63015825 22.15127265 -4.6328125 19.8125 C-4.63410156 18.73742187 -4.63539063 17.66234375 -4.63671875 16.5546875 C-4.63091797 14.85699219 -4.63091797 14.85699219 -4.625 13.125 C-4.62886719 11.99320312 -4.63273438 10.86140625 -4.63671875 9.6953125 C-4.63542969 8.62023437 -4.63414062 7.54515625 -4.6328125 6.4375 C-4.63168457 5.44363281 -4.63055664 4.44976562 -4.62939453 3.42578125 C-4.41864371 -0.321607 -3.90063816 0.13930851 0 0 Z " fill="#F5F49E" transform="translate(191.5,263.875)"/>
<path d="M0 0 C2.9375 0.1875 2.9375 0.1875 3.9375 1.1875 C4.03696453 2.95609193 4.06830217 4.72861451 4.0703125 6.5 C4.07224609 8.11261719 4.07224609 8.11261719 4.07421875 9.7578125 C4.07035156 10.88960938 4.06648438 12.02140625 4.0625 13.1875 C4.06636719 14.31929688 4.07023437 15.45109375 4.07421875 16.6171875 C4.07292969 17.69226563 4.07164062 18.76734375 4.0703125 19.875 C4.06918457 20.86886719 4.06805664 21.86273438 4.06689453 22.88671875 C3.9375 25.1875 3.9375 25.1875 2.9375 26.1875 C0 26.375 0 26.375 -3.0625 26.1875 C-5.59304337 23.65695663 -5.31933229 22.75201118 -5.328125 19.25 C-5.33070313 18.27289063 -5.33328125 17.29578125 -5.3359375 16.2890625 C-5.32820313 15.26554687 -5.32046875 14.24203125 -5.3125 13.1875 C-5.32023437 12.16398437 -5.32796875 11.14046875 -5.3359375 10.0859375 C-5.33335937 9.10882813 -5.33078125 8.13171875 -5.328125 7.125 C-5.32586914 6.22652344 -5.32361328 5.32804687 -5.32128906 4.40234375 C-4.8871555 0.68681579 -3.59849712 0.22031615 0 0 Z " fill="#F3F29D" transform="translate(295.0625,263.8125)"/>
<path d="M0 0 C5.61 0 11.22 0 17 0 C17 1.32 17 2.64 17 4 C14.69 4 12.38 4 10 4 C10 14.23 10 24.46 10 35 C8.68 35 7.36 35 6 35 C6 24.77 6 14.54 6 4 C4.02 4 2.04 4 0 4 C0 2.68 0 1.36 0 0 Z " fill="#ECEE99" transform="translate(183,309)"/>
<path d="M0 0 C0.99 0.33 1.98 0.66 3 1 C3.9163928 3.54996257 4.46197586 6.10837112 5.05859375 8.75 C5.36925781 9.4925 5.67992187 10.235 6 11 C8.0216312 11.89079767 8.0216312 11.89079767 10 12 C9.01 12 8.02 12 7 12 C7.144375 12.76441406 7.28875 13.52882812 7.4375 14.31640625 C8.94300166 23.00440542 9.21872155 31.21468438 9 40 C8.34 40 7.68 40 7 40 C6.90203125 39.14019531 6.8040625 38.28039062 6.703125 37.39453125 C5.16421485 24.84487501 5.16421485 24.84487501 1 13 C-1.50873513 11.11772453 -1.50873513 11.11772453 -4 10 C-3.5205537 5.78087253 -2.83374881 3.20336822 0 0 Z " fill="#EDF099" transform="translate(210,187)"/>
<path d="M0 0 C1.98 0 3.96 0 6 0 C8 2 8 2 8.3125 5.9375 C8.23719217 8.53091352 8.15247863 9.74319388 6.8125 12 C5 13 5 13 0 13 C0 8.71 0 4.42 0 0 Z " fill="#246222" transform="translate(206,313)"/>
<path d="M0 0 C1.98 0 3.96 0 6 0 C8 2 8 2 8.265625 3.875 C8.26046875 4.57625 8.2553125 5.2775 8.25 6 C8.25515625 6.70125 8.2603125 7.4025 8.265625 8.125 C8 10 8 10 6 12 C4.02 12 2.04 12 0 12 C0 8.04 0 4.08 0 0 Z " fill="#1D5D1E" transform="translate(304,313)"/>
<path d="M0 0 C2.05078125 0.03255208 4.1015625 0.06510417 6.15234375 0.09765625 C5.16234375 5.04765625 4.17234375 9.99765625 3.15234375 15.09765625 C2.16234375 15.09765625 1.17234375 15.09765625 0.15234375 15.09765625 C-3.38842164 5.42377938 -3.38842164 5.42377938 -2.84765625 1.09765625 C-1.84765625 0.09765625 -1.84765625 0.09765625 0 0 Z " fill="#1A5B1C" transform="translate(197.84765625,197.90234375)"/>
<path d="M0 0 C0.66 0 1.32 0 2 0 C4.46842584 8.7589304 2.81862056 17.50534995 0 26 C-0.66 26.99 -1.32 27.98 -2 29 C-2.66 29 -3.32 29 -4 29 C-3.69320312 27.73285156 -3.38640625 26.46570313 -3.0703125 25.16015625 C-1.91177179 19.94672307 -1.35057321 14.75066626 -0.875 9.4375 C-0.78863281 8.52419922 -0.70226562 7.61089844 -0.61328125 6.66992188 C-0.40379445 4.44703416 -0.19945316 2.22380651 0 0 Z " fill="#368B32" transform="translate(229,179)"/>
<path d="M0 0 C2.35373401 3.53060101 2.65778415 6.58595756 3.125 10.6875 C3.21136719 11.38939453 3.29773438 12.09128906 3.38671875 12.81445312 C3.59826875 14.54211145 3.800086 16.2709566 4 18 C1.69 18 -0.62 18 -3 18 C-2.57045059 11.74892565 -1.98598493 5.95795479 0 0 Z " fill="#2A6626" transform="translate(230,316)"/>
<path d="M0 0 C3.5 0.125 3.5 0.125 4.5 1.125 C4.625 4.125 4.625 4.125 4.5 7.125 C3.5 8.125 3.5 8.125 0 8.25 C-3.5 8.125 -3.5 8.125 -4.5 7.125 C-4.625 4.125 -4.625 4.125 -4.5 1.125 C-3.5 0.125 -3.5 0.125 0 0 Z " fill="#F1F19C" transform="translate(191.5,251.875)"/>
<path d="M0 0 C3.5 0.125 3.5 0.125 4.5 1.125 C4.625 4.125 4.625 4.125 4.5 7.125 C3.5 8.125 3.5 8.125 -0.0625 8.1875 C-1.196875 8.166875 -2.33125 8.14625 -3.5 8.125 C-3.88063221 5.7989143 -4.21269945 3.46444736 -4.5 1.125 C-3.5 0.125 -3.5 0.125 0 0 Z " fill="#F1F19C" transform="translate(294.5,251.875)"/>
<path d="M0 0 C1.65 0 3.3 0 5 0 C5.66 0.66 6.32 1.32 7 2 C6.63636746 5.14282412 5.34949193 7.23383075 3.5 9.75 C2.83484375 10.67039062 2.83484375 10.67039062 2.15625 11.609375 C1.7746875 12.06828125 1.393125 12.5271875 1 13 C0.67 13 0.34 13 0 13 C0 8.71 0 4.42 0 0 Z " fill="#185B1B" transform="translate(304,329)"/>
<path d="M0 0 C2.5625 0.1875 2.5625 0.1875 4.5625 2.1875 C4.00694444 6.74305556 4.00694444 6.74305556 2.5625 8.1875 C0.125 8.375 0.125 8.375 -2.4375 8.1875 C-3.0975 7.5275 -3.7575 6.8675 -4.4375 6.1875 C-3.71780303 0.28598485 -3.71780303 0.28598485 0 0 Z " fill="#256323" transform="translate(228.4375,272.8125)"/>
<path d="M0 0 C0.33 0 0.66 0 1 0 C1.18451025 10.55808656 1.18451025 10.55808656 0 15 C-0.99 15 -1.98 15 -3 15 C-2.67 11.37 -2.34 7.74 -2 4 C-1.34 4 -0.68 4 0 4 C0 2.68 0 1.36 0 0 Z " fill="#3F6F31" transform="translate(155,200)"/>
<path d="M0 0 C4.62 0 9.24 0 14 0 C9.5889269 3.30830483 8.30317127 3.57852777 3 3 C2.01 2.01 1.02 1.02 0 0 Z " fill="#236122" transform="translate(334,280)"/>
<path d="M0 0 C3.96 0 7.92 0 12 0 C12 0.66 12 1.32 12 2 C8.49852959 3.1671568 5.67329964 3.13357453 2 3 C1.34 2.67 0.68 2.34 0 2 C0 1.34 0 0.68 0 0 Z " fill="#256323" transform="translate(255,280)"/>
<path d="M0 0 C1.65 0.33 3.3 0.66 5 1 C5 1.99 5 2.98 5 4 C2.36 4 -0.28 4 -3 4 C-2.01 2.68 -1.02 1.36 0 0 Z " fill="#266323" transform="translate(337,271)"/>
<path d="M0 0 C1.65 0.33 3.3 0.66 5 1 C5 1.99 5 2.98 5 4 C2.69 4 0.38 4 -2 4 C-1.34 2.68 -0.68 1.36 0 0 Z " fill="#236122" transform="translate(257,271)"/>
<path d="M0 0 C0.33 0 0.66 0 1 0 C0.67 2.64 0.34 5.28 0 8 C-0.99 8 -1.98 8 -3 8 C-2.25 2.25 -2.25 2.25 0 0 Z " fill="#2C852D" transform="translate(228,200)"/>
</svg>
